<svg width="117" height="98" viewBox="0 0 117 98" fill="none" xmlns="http://www.w3.org/2000/svg">
<path d="M3.5625 40V34.9141H11.3672V15.2266L4.57031 18.9766L2.69531 14.3125L12.4219 9.17969H17.2266V34.9141H23.9531V40H3.5625ZM52.9791 24.5547C52.9791 27.0703 52.7056 29.3203 52.1588 31.3047C51.6119 33.2891 50.8072 34.9688 49.7447 36.3438C48.6978 37.7031 47.4166 38.7422 45.9009 39.4609C44.3853 40.1797 42.6509 40.5391 40.6978 40.5391C39.0103 40.5391 37.4556 40.2422 36.0338 39.6484C34.6119 39.0547 33.3853 38.125 32.3541 36.8594C31.3228 35.5781 30.5181 33.9453 29.94 31.9609C29.3619 29.9766 29.0728 27.6016 29.0728 24.8359C29.0728 22.3203 29.3463 20.0703 29.8931 18.0859C30.4556 16.1016 31.2603 14.4297 32.3072 13.0703C33.3541 11.6953 34.6431 10.6484 36.1744 9.92969C37.7056 9.21094 39.44 8.85156 41.3775 8.85156C43.065 8.85156 44.6197 9.14844 46.0416 9.74219C47.4634 10.3359 48.6822 11.2656 49.6978 12.5312C50.7291 13.7969 51.5338 15.4219 52.1119 17.4062C52.69 19.3906 52.9791 21.7734 52.9791 24.5547ZM34.8384 24.6484C34.8384 24.9609 34.8384 25.2578 34.8384 25.5391C34.8384 25.8047 34.8541 26.0781 34.8853 26.3594L46.3697 18.0625C45.8228 16.5156 45.0963 15.375 44.19 14.6406C43.2994 13.8906 42.2447 13.5156 41.0259 13.5156C40.1509 13.5156 39.3384 13.7422 38.5884 14.1953C37.8384 14.6328 37.1822 15.3125 36.6197 16.2344C36.0728 17.1562 35.6353 18.3125 35.3072 19.7031C34.9947 21.0938 34.8384 22.7422 34.8384 24.6484ZM47.2134 24.7422C47.2134 24.4766 47.2056 24.2109 47.19 23.9453C47.1744 23.6641 47.1666 23.3984 47.1666 23.1484L35.7525 31.3984C36.2525 32.9141 36.9556 34.0391 37.8619 34.7734C38.7681 35.5078 39.8228 35.875 41.0259 35.875C41.9009 35.875 42.7134 35.6484 43.4634 35.1953C44.2291 34.7422 44.8853 34.0625 45.4322 33.1562C45.9947 32.2344 46.4322 31.0781 46.7447 29.6875C47.0572 28.2812 47.2134 26.6328 47.2134 24.7422ZM58.6847 40V35.7812L65.9269 28.5391C67.2863 27.1797 68.3722 26.0078 69.1847 25.0234C70.0128 24.0391 70.6456 23.1641 71.0831 22.3984C71.5363 21.6172 71.8331 20.8984 71.9738 20.2422C72.1144 19.5859 72.1847 18.9062 72.1847 18.2031C72.1847 17.625 72.0909 17.0781 71.9034 16.5625C71.7159 16.0312 71.4425 15.5781 71.0831 15.2031C70.7238 14.8125 70.2706 14.5078 69.7238 14.2891C69.1769 14.0547 68.5519 13.9375 67.8488 13.9375C66.6456 13.9375 65.5284 14.2031 64.4972 14.7344C63.4659 15.25 62.4894 15.9453 61.5675 16.8203L58.5441 12.9297C59.8722 11.6953 61.3644 10.7109 63.0206 9.97656C64.6925 9.22656 66.4972 8.85156 68.4347 8.85156C69.9347 8.85156 71.2941 9.04687 72.5128 9.4375C73.7316 9.8125 74.7706 10.375 75.63 11.125C76.505 11.875 77.1769 12.8125 77.6456 13.9375C78.13 15.0625 78.3722 16.3594 78.3722 17.8281C78.3722 19.0469 78.2081 20.1875 77.88 21.25C77.5519 22.2969 77.0753 23.3203 76.4503 24.3203C75.8253 25.3203 75.0519 26.3203 74.13 27.3203C73.2238 28.3203 72.1847 29.375 71.0128 30.4844L66.5597 34.7266H79.4738V40H58.6847ZM104.234 33.7656V40H98.6559V33.7656H84.4059V28.8672L96.3591 9.36719H104.234V28.7266H108.875V33.7656H104.234ZM98.7262 14.8984L90.0075 28.7266H98.7262V14.8984Z" fill="#1400FF"/>
<path d="M6.28906 65H5.34668V61.7139H1.7627V65H0.825195V57.8906H1.7627V60.9473H5.34668V57.8906H6.28906V65ZM11.0742 65C11.0221 64.8958 10.9798 64.7103 10.9473 64.4434C10.5273 64.8796 10.026 65.0977 9.44336 65.0977C8.92253 65.0977 8.49447 64.9512 8.15918 64.6582C7.82715 64.362 7.66113 63.9876 7.66113 63.5352C7.66113 62.985 7.86947 62.5586 8.28613 62.2559C8.70605 61.9499 9.29525 61.7969 10.0537 61.7969H10.9326V61.3818C10.9326 61.0661 10.8382 60.8154 10.6494 60.6299C10.4606 60.4411 10.1823 60.3467 9.81445 60.3467C9.49219 60.3467 9.22201 60.4281 9.00391 60.5908C8.78581 60.7536 8.67676 60.9505 8.67676 61.1816H7.76855C7.76855 60.918 7.86133 60.6641 8.04688 60.4199C8.23568 60.1725 8.48958 59.9772 8.80859 59.834C9.13086 59.6908 9.48405 59.6191 9.86816 59.6191C10.4769 59.6191 10.9538 59.7721 11.2988 60.0781C11.6439 60.3809 11.8229 60.7992 11.8359 61.333V63.7646C11.8359 64.2497 11.8978 64.6354 12.0215 64.9219V65H11.0742ZM9.5752 64.3115C9.8584 64.3115 10.127 64.2383 10.3809 64.0918C10.6348 63.9453 10.8187 63.7549 10.9326 63.5205V62.4365H10.2246C9.11784 62.4365 8.56445 62.7604 8.56445 63.4082C8.56445 63.6914 8.65885 63.9128 8.84766 64.0723C9.03646 64.2318 9.27897 64.3115 9.5752 64.3115ZM17.7148 62.417C17.7148 63.221 17.5309 63.8688 17.1631 64.3604C16.7952 64.8519 16.2972 65.0977 15.6689 65.0977C15.0277 65.0977 14.5231 64.8942 14.1553 64.4873V67.0312H13.252V59.7168H14.0771L14.1211 60.3027C14.4889 59.847 15 59.6191 15.6543 59.6191C16.2891 59.6191 16.7904 59.8584 17.1582 60.3369C17.5293 60.8154 17.7148 61.4811 17.7148 62.334V62.417ZM16.8115 62.3145C16.8115 61.7188 16.6846 61.2484 16.4307 60.9033C16.1768 60.5583 15.8285 60.3857 15.3857 60.3857C14.8389 60.3857 14.4287 60.6283 14.1553 61.1133V63.6377C14.4255 64.1195 14.8389 64.3604 15.3955 64.3604C15.8285 64.3604 16.1719 64.1895 16.4258 63.8477C16.6829 63.5026 16.8115 62.9915 16.8115 62.3145ZM23.3301 62.417C23.3301 63.221 23.1462 63.8688 22.7783 64.3604C22.4105 64.8519 21.9124 65.0977 21.2842 65.0977C20.6429 65.0977 20.1383 64.8942 19.7705 64.4873V67.0312H18.8672V59.7168H19.6924L19.7363 60.3027C20.1042 59.847 20.6152 59.6191 21.2695 59.6191C21.9043 59.6191 22.4056 59.8584 22.7734 60.3369C23.1445 60.8154 23.3301 61.4811 23.3301 62.334V62.417ZM22.4268 62.3145C22.4268 61.7188 22.2998 61.2484 22.0459 60.9033C21.792 60.5583 21.4437 60.3857 21.001 60.3857C20.4541 60.3857 20.0439 60.6283 19.7705 61.1133V63.6377C20.0407 64.1195 20.4541 64.3604 21.0107 64.3604C21.4437 64.3604 21.7871 64.1895 22.041 63.8477C22.2982 63.5026 22.4268 62.9915 22.4268 62.3145ZM26.1523 63.6768L27.3828 59.7168H28.3496L26.2256 65.8154C25.8968 66.6943 25.3743 67.1338 24.6582 67.1338L24.4873 67.1191L24.1504 67.0557V66.3232L24.3945 66.3428C24.7005 66.3428 24.9382 66.2809 25.1074 66.1572C25.2799 66.0335 25.4215 65.8073 25.5322 65.4785L25.7324 64.9414L23.8477 59.7168H24.834L26.1523 63.6768ZM32.7197 62.2168V65H31.7822V57.8906H34.4043C35.1823 57.8906 35.791 58.0892 36.2305 58.4863C36.6732 58.8835 36.8945 59.4092 36.8945 60.0635C36.8945 60.7536 36.6781 61.2858 36.2451 61.6602C35.8154 62.0312 35.1986 62.2168 34.3945 62.2168H32.7197ZM32.7197 61.4502H34.4043C34.9056 61.4502 35.2897 61.333 35.5566 61.0986C35.8236 60.861 35.957 60.5192 35.957 60.0732C35.957 59.6501 35.8236 59.3115 35.5566 59.0576C35.2897 58.8037 34.9235 58.6719 34.458 58.6621H32.7197V61.4502ZM40.5029 60.5273C40.3662 60.5046 40.2181 60.4932 40.0586 60.4932C39.4661 60.4932 39.0641 60.7454 38.8525 61.25V65H37.9492V59.7168H38.8281L38.8428 60.3271C39.139 59.8551 39.5589 59.6191 40.1025 59.6191C40.2783 59.6191 40.4118 59.6419 40.5029 59.6875V60.5273ZM41.001 62.3096C41.001 61.792 41.1019 61.3265 41.3037 60.9131C41.5088 60.4997 41.792 60.1807 42.1533 59.9561C42.5179 59.7314 42.9329 59.6191 43.3984 59.6191C44.1178 59.6191 44.6989 59.8682 45.1416 60.3662C45.5876 60.8643 45.8105 61.5267 45.8105 62.3535V62.417C45.8105 62.9313 45.7113 63.3936 45.5127 63.8037C45.3174 64.2106 45.0358 64.528 44.668 64.7559C44.3034 64.9837 43.8835 65.0977 43.4082 65.0977C42.6921 65.0977 42.111 64.8486 41.665 64.3506C41.2223 63.8525 41.001 63.1934 41.001 62.373V62.3096ZM41.9092 62.417C41.9092 63.0029 42.0443 63.4733 42.3145 63.8281C42.5879 64.1829 42.9525 64.3604 43.4082 64.3604C43.8672 64.3604 44.2318 64.1813 44.502 63.8232C44.7721 63.4619 44.9072 62.9574 44.9072 62.3096C44.9072 61.7301 44.7689 61.2614 44.4922 60.9033C44.2188 60.542 43.8542 60.3613 43.3984 60.3613C42.9525 60.3613 42.5928 60.5387 42.3193 60.8936C42.0459 61.2484 41.9092 61.7562 41.9092 62.417ZM46.7285 62.3145C46.7285 61.4909 46.9189 60.8366 47.2998 60.3516C47.6807 59.8633 48.1852 59.6191 48.8135 59.6191C49.458 59.6191 49.9609 59.847 50.3223 60.3027L50.3662 59.7168H51.1914V64.873C51.1914 65.5566 50.988 66.0954 50.5811 66.4893C50.1774 66.8831 49.6338 67.0801 48.9502 67.0801C48.5693 67.0801 48.1966 66.9987 47.832 66.8359C47.4674 66.6732 47.1891 66.4502 46.9971 66.167L47.4658 65.625C47.8532 66.1035 48.3268 66.3428 48.8867 66.3428C49.3262 66.3428 49.668 66.2191 49.9121 65.9717C50.1595 65.7243 50.2832 65.376 50.2832 64.9268V64.4727C49.9219 64.8893 49.4287 65.0977 48.8037 65.0977C48.1852 65.0977 47.6839 64.8486 47.2998 64.3506C46.9189 63.8525 46.7285 63.1738 46.7285 62.3145ZM47.6367 62.417C47.6367 63.0127 47.7588 63.4814 48.0029 63.8232C48.2471 64.1618 48.5889 64.3311 49.0283 64.3311C49.598 64.3311 50.0163 64.0723 50.2832 63.5547V61.1426C50.0065 60.638 49.5915 60.3857 49.0381 60.3857C48.5986 60.3857 48.2552 60.5566 48.0078 60.8984C47.7604 61.2402 47.6367 61.7464 47.6367 62.417ZM55.1123 60.5273C54.9756 60.5046 54.8275 60.4932 54.668 60.4932C54.0755 60.4932 53.6735 60.7454 53.4619 61.25V65H52.5586V59.7168H53.4375L53.4521 60.3271C53.7484 59.8551 54.1683 59.6191 54.7119 59.6191C54.8877 59.6191 55.0212 59.6419 55.1123 59.6875V60.5273ZM59.0137 65C58.9616 64.8958 58.9193 64.7103 58.8867 64.4434C58.4668 64.8796 57.9655 65.0977 57.3828 65.0977C56.862 65.0977 56.4339 64.9512 56.0986 64.6582C55.7666 64.362 55.6006 63.9876 55.6006 63.5352C55.6006 62.985 55.8089 62.5586 56.2256 62.2559C56.6455 61.9499 57.2347 61.7969 57.9932 61.7969H58.8721V61.3818C58.8721 61.0661 58.7777 60.8154 58.5889 60.6299C58.4001 60.4411 58.1217 60.3467 57.7539 60.3467C57.4316 60.3467 57.1615 60.4281 56.9434 60.5908C56.7253 60.7536 56.6162 60.9505 56.6162 61.1816H55.708C55.708 60.918 55.8008 60.6641 55.9863 60.4199C56.1751 60.1725 56.429 59.9772 56.748 59.834C57.0703 59.6908 57.4235 59.6191 57.8076 59.6191C58.4163 59.6191 58.8932 59.7721 59.2383 60.0781C59.5833 60.3809 59.7624 60.7992 59.7754 61.333V63.7646C59.7754 64.2497 59.8372 64.6354 59.9609 64.9219V65H59.0137ZM57.5146 64.3115C57.7979 64.3115 58.0664 64.2383 58.3203 64.0918C58.5742 63.9453 58.7581 63.7549 58.8721 63.5205V62.4365H58.1641C57.0573 62.4365 56.5039 62.7604 56.5039 63.4082C56.5039 63.6914 56.5983 63.9128 56.7871 64.0723C56.9759 64.2318 57.2184 64.3115 57.5146 64.3115ZM62.041 59.7168L62.0654 60.3027C62.4528 59.847 62.9753 59.6191 63.6328 59.6191C64.3717 59.6191 64.8747 59.9023 65.1416 60.4688C65.3174 60.2148 65.5452 60.0098 65.8252 59.8535C66.1084 59.6973 66.4421 59.6191 66.8262 59.6191C67.985 59.6191 68.5742 60.2327 68.5938 61.46V65H67.6904V61.5137C67.6904 61.1361 67.6042 60.8545 67.4316 60.6689C67.2591 60.4801 66.9694 60.3857 66.5625 60.3857C66.2272 60.3857 65.9489 60.4867 65.7275 60.6885C65.5062 60.887 65.3776 61.1556 65.3418 61.4941V65H64.4336V61.5381C64.4336 60.7699 64.0576 60.3857 63.3057 60.3857C62.7132 60.3857 62.3079 60.638 62.0898 61.1426V65H61.1865V59.7168H62.041ZM70.8105 59.7168L70.835 60.3027C71.2223 59.847 71.7448 59.6191 72.4023 59.6191C73.1413 59.6191 73.6442 59.9023 73.9111 60.4688C74.0869 60.2148 74.3148 60.0098 74.5947 59.8535C74.8779 59.6973 75.2116 59.6191 75.5957 59.6191C76.7546 59.6191 77.3438 60.2327 77.3633 61.46V65H76.46V61.5137C76.46 61.1361 76.3737 60.8545 76.2012 60.6689C76.0286 60.4801 75.7389 60.3857 75.332 60.3857C74.9967 60.3857 74.7184 60.4867 74.4971 60.6885C74.2757 60.887 74.1471 61.1556 74.1113 61.4941V65H73.2031V61.5381C73.2031 60.7699 72.8271 60.3857 72.0752 60.3857C71.4827 60.3857 71.0775 60.638 70.8594 61.1426V65H69.9561V59.7168H70.8105ZM80.9229 65.0977C80.2067 65.0977 79.624 64.8633 79.1748 64.3945C78.7256 63.9225 78.501 63.2926 78.501 62.5049V62.3389C78.501 61.8148 78.6003 61.3477 78.7988 60.9375C79.0007 60.5241 79.2806 60.2018 79.6387 59.9707C80 59.7363 80.3906 59.6191 80.8105 59.6191C81.4974 59.6191 82.0312 59.8454 82.4121 60.2979C82.793 60.7503 82.9834 61.3981 82.9834 62.2412V62.6172H79.4043C79.4173 63.138 79.5687 63.5596 79.8584 63.8818C80.1514 64.2008 80.5225 64.3604 80.9717 64.3604C81.2907 64.3604 81.5609 64.2952 81.7822 64.165C82.0036 64.0348 82.1973 63.8623 82.3633 63.6475L82.915 64.0771C82.4723 64.7575 81.8083 65.0977 80.9229 65.0977ZM80.8105 60.3613C80.446 60.3613 80.14 60.4948 79.8926 60.7617C79.6452 61.0254 79.4922 61.3965 79.4336 61.875H82.0801V61.8066C82.054 61.3477 81.9303 60.9928 81.709 60.7422C81.4876 60.4883 81.1882 60.3613 80.8105 60.3613ZM86.5869 60.5273C86.4502 60.5046 86.3021 60.4932 86.1426 60.4932C85.5501 60.4932 85.1481 60.7454 84.9365 61.25V65H84.0332V59.7168H84.9121L84.9268 60.3271C85.223 59.8551 85.6429 59.6191 86.1865 59.6191C86.3623 59.6191 86.4958 59.6419 86.5869 59.6875V60.5273ZM88.0518 58.042L87.9492 59.8389H87.3193L87.3242 57.5H88.0518V58.042ZM91.9336 63.5986C91.9336 63.3545 91.8408 63.1657 91.6553 63.0322C91.473 62.8955 91.1523 62.7783 90.6934 62.6807C90.2376 62.583 89.8747 62.4658 89.6045 62.3291C89.3376 62.1924 89.139 62.0296 89.0088 61.8408C88.8818 61.652 88.8184 61.4274 88.8184 61.167C88.8184 60.734 89.0007 60.3678 89.3652 60.0684C89.7331 59.7689 90.2018 59.6191 90.7715 59.6191C91.3704 59.6191 91.8555 59.7738 92.2266 60.083C92.6009 60.3923 92.7881 60.7878 92.7881 61.2695H91.8799C91.8799 61.0221 91.7741 60.8089 91.5625 60.6299C91.3542 60.4508 91.0905 60.3613 90.7715 60.3613C90.4427 60.3613 90.1855 60.4329 90 60.5762C89.8145 60.7194 89.7217 60.9066 89.7217 61.1377C89.7217 61.3558 89.8079 61.5202 89.9805 61.6309C90.153 61.7415 90.4639 61.8473 90.9131 61.9482C91.3656 62.0492 91.7318 62.1696 92.0117 62.3096C92.2917 62.4495 92.4984 62.6188 92.6318 62.8174C92.7686 63.0127 92.8369 63.252 92.8369 63.5352C92.8369 64.0072 92.6481 64.3864 92.2705 64.6729C91.8929 64.9561 91.403 65.0977 90.8008 65.0977C90.3776 65.0977 90.0033 65.0228 89.6777 64.873C89.3522 64.7233 89.0967 64.515 88.9111 64.248C88.7288 63.9779 88.6377 63.6865 88.6377 63.374H89.541C89.5573 63.6768 89.6777 63.9176 89.9023 64.0967C90.1302 64.2725 90.4297 64.3604 90.8008 64.3604C91.1426 64.3604 91.416 64.292 91.6211 64.1553C91.8294 64.0153 91.9336 63.8298 91.9336 63.5986ZM96.6357 65V57.8906H98.6426C99.2611 57.8906 99.8079 58.0273 100.283 58.3008C100.758 58.5742 101.125 58.9632 101.382 59.4678C101.642 59.9723 101.774 60.5518 101.777 61.2061V61.6602C101.777 62.3307 101.647 62.9183 101.387 63.4229C101.13 63.9274 100.76 64.3148 100.278 64.585C99.7998 64.8551 99.2415 64.9935 98.6035 65H96.6357ZM97.5732 58.6621V64.2334H98.5596C99.2822 64.2334 99.8438 64.0088 100.244 63.5596C100.648 63.1104 100.85 62.4707 100.85 61.6406V61.2256C100.85 60.4183 100.659 59.7917 100.278 59.3457C99.9007 58.8965 99.3636 58.6686 98.667 58.6621H97.5732ZM106.318 65C106.266 64.8958 106.224 64.7103 106.191 64.4434C105.771 64.8796 105.27 65.0977 104.688 65.0977C104.167 65.0977 103.739 64.9512 103.403 64.6582C103.071 64.362 102.905 63.9876 102.905 63.5352C102.905 62.985 103.114 62.5586 103.53 62.2559C103.95 61.9499 104.539 61.7969 105.298 61.7969H106.177V61.3818C106.177 61.0661 106.082 60.8154 105.894 60.6299C105.705 60.4411 105.426 60.3467 105.059 60.3467C104.736 60.3467 104.466 60.4281 104.248 60.5908C104.03 60.7536 103.921 60.9505 103.921 61.1816H103.013C103.013 60.918 103.105 60.6641 103.291 60.4199C103.48 60.1725 103.734 59.9772 104.053 59.834C104.375 59.6908 104.728 59.6191 105.112 59.6191C105.721 59.6191 106.198 59.7721 106.543 60.0781C106.888 60.3809 107.067 60.7992 107.08 61.333V63.7646C107.08 64.2497 107.142 64.6354 107.266 64.9219V65H106.318ZM104.819 64.3115C105.103 64.3115 105.371 64.2383 105.625 64.0918C105.879 63.9453 106.063 63.7549 106.177 63.5205V62.4365H105.469C104.362 62.4365 103.809 62.7604 103.809 63.4082C103.809 63.6914 103.903 63.9128 104.092 64.0723C104.281 64.2318 104.523 64.3115 104.819 64.3115ZM110.146 63.6768L111.377 59.7168H112.344L110.22 65.8154C109.891 66.6943 109.368 67.1338 108.652 67.1338L108.481 67.1191L108.145 67.0557V66.3232L108.389 66.3428C108.695 66.3428 108.932 66.2809 109.102 66.1572C109.274 66.0335 109.416 65.8073 109.526 65.4785L109.727 64.9414L107.842 59.7168H108.828L110.146 63.6768ZM114.165 62.9932H113.35L113.286 57.8906H114.233L114.165 62.9932ZM113.252 64.5459C113.252 64.3994 113.296 64.2773 113.384 64.1797C113.475 64.0788 113.608 64.0283 113.784 64.0283C113.96 64.0283 114.093 64.0788 114.185 64.1797C114.276 64.2773 114.321 64.3994 114.321 64.5459C114.321 64.6924 114.276 64.8145 114.185 64.9121C114.093 65.0065 113.96 65.0537 113.784 65.0537C113.608 65.0537 113.475 65.0065 113.384 64.9121C113.296 64.8145 113.252 64.6924 113.252 64.5459Z" fill="black"/>
<path d="M2.9834 79.7676L5.15625 75.8906H5.84961L3.28125 80.3242V83H2.68066V80.3242L0.117188 75.8906H0.830078L2.9834 79.7676ZM6.10352 80.2803C6.10352 79.7725 6.20117 79.3151 6.39648 78.9082C6.59505 78.5013 6.87337 78.1855 7.23145 77.9609C7.59277 77.7331 8.0013 77.6191 8.45703 77.6191C9.16016 77.6191 9.72982 77.8665 10.166 78.3613C10.6022 78.8529 10.8203 79.5055 10.8203 80.3193V80.4414C10.8203 80.9525 10.721 81.4131 10.5225 81.8232C10.3271 82.2301 10.0505 82.5443 9.69238 82.7656C9.33431 82.987 8.92578 83.0977 8.4668 83.0977C7.76693 83.0977 7.19727 82.8519 6.75781 82.3604C6.32161 81.8656 6.10352 81.2113 6.10352 80.3975V80.2803ZM6.68945 80.4414C6.68945 81.0729 6.85221 81.5921 7.17773 81.999C7.50651 82.4027 7.9362 82.6045 8.4668 82.6045C8.99414 82.6045 9.42057 82.4027 9.74609 81.999C10.0749 81.5921 10.2393 81.0566 10.2393 80.3926V80.2803C10.2393 79.8766 10.1644 79.5072 10.0146 79.1719C9.86491 78.8366 9.65495 78.5778 9.38477 78.3955C9.11458 78.21 8.80534 78.1172 8.45703 78.1172C7.9362 78.1172 7.51139 78.3223 7.18262 78.7324C6.85384 79.1393 6.68945 79.6732 6.68945 80.334V80.4414ZM15.4297 82.3311C15.0781 82.8421 14.5166 83.0977 13.7451 83.0977C13.182 83.0977 12.7539 82.9349 12.4609 82.6094C12.168 82.2806 12.0182 81.7956 12.0117 81.1543V77.7168H12.5928V81.0811C12.5928 82.0869 12.9997 82.5898 13.8135 82.5898C14.6598 82.5898 15.1953 82.2399 15.4199 81.54V77.7168H16.0059V83H15.4395L15.4297 82.3311ZM21.9141 82.6045C22.321 82.6045 22.6611 82.4906 22.9346 82.2627C23.2113 82.0316 23.361 81.7337 23.3838 81.3691H23.9453C23.929 81.6914 23.8281 81.986 23.6426 82.2529C23.457 82.5166 23.2096 82.7233 22.9004 82.873C22.5944 83.0228 22.2656 83.0977 21.9141 83.0977C21.2207 83.0977 20.6706 82.8568 20.2637 82.375C19.86 81.8932 19.6582 81.2454 19.6582 80.4316V80.2559C19.6582 79.735 19.7493 79.2744 19.9316 78.874C20.1139 78.4736 20.3743 78.1644 20.7129 77.9463C21.0547 77.7282 21.4535 77.6191 21.9092 77.6191C22.4886 77.6191 22.9655 77.7917 23.3398 78.1367C23.7174 78.4818 23.9193 78.9359 23.9453 79.499H23.3838C23.3577 79.0856 23.208 78.752 22.9346 78.498C22.6644 78.2441 22.3226 78.1172 21.9092 78.1172C21.3818 78.1172 20.9717 78.3076 20.6787 78.6885C20.389 79.0693 20.2441 79.6032 20.2441 80.29V80.4609C20.2441 81.1348 20.389 81.6605 20.6787 82.0381C20.9717 82.4157 21.3835 82.6045 21.9141 82.6045ZM28.4521 83C28.3936 82.834 28.3561 82.5882 28.3398 82.2627C28.1348 82.5296 27.8727 82.7363 27.5537 82.8828C27.238 83.026 26.9027 83.0977 26.5479 83.0977C26.04 83.0977 25.6283 82.9561 25.3125 82.6729C25 82.3896 24.8438 82.0316 24.8438 81.5986C24.8438 81.0843 25.057 80.6774 25.4834 80.3779C25.9131 80.0785 26.5104 79.9287 27.2754 79.9287H28.335V79.3281C28.335 78.9505 28.2178 78.6543 27.9834 78.4395C27.7523 78.2214 27.4137 78.1123 26.9678 78.1123C26.5609 78.1123 26.224 78.2165 25.957 78.4248C25.6901 78.6331 25.5566 78.8838 25.5566 79.1768L24.9707 79.1719C24.9707 78.752 25.166 78.389 25.5566 78.083C25.9473 77.7738 26.4274 77.6191 26.9971 77.6191C27.5863 77.6191 28.0501 77.7673 28.3887 78.0635C28.7305 78.3564 28.9062 78.7666 28.916 79.2939V81.7939C28.916 82.305 28.9697 82.6875 29.0771 82.9414V83H28.4521ZM26.6162 82.5801C27.0068 82.5801 27.3551 82.4857 27.6611 82.2969C27.9704 82.1081 28.195 81.8558 28.335 81.54V80.3779H27.29C26.7074 80.3844 26.2516 80.4919 25.9229 80.7002C25.5941 80.9053 25.4297 81.1885 25.4297 81.5498C25.4297 81.846 25.5387 82.0918 25.7568 82.2871C25.9782 82.4824 26.2646 82.5801 26.6162 82.5801ZM31.0352 77.7168L31.0547 78.6201C31.2533 78.2946 31.5007 78.0472 31.7969 77.8779C32.0931 77.7054 32.4202 77.6191 32.7783 77.6191C33.3447 77.6191 33.7663 77.7786 34.043 78.0977C34.3197 78.4167 34.4596 78.8952 34.4629 79.5332V83H33.8818V79.5283C33.8786 79.0563 33.7777 78.7048 33.5791 78.4736C33.3838 78.2425 33.0697 78.127 32.6367 78.127C32.2754 78.127 31.9548 78.2409 31.6748 78.4688C31.3981 78.6934 31.193 78.9977 31.0596 79.3818V83H30.4785V77.7168H31.0352ZM41.6846 75.8906H42.29V80.8857C42.29 81.5596 42.0947 82.0967 41.7041 82.4971C41.3167 82.8975 40.7959 83.0977 40.1416 83.0977C39.4515 83.0977 38.9209 82.917 38.5498 82.5557C38.1787 82.1943 37.9932 81.6898 37.9932 81.042H38.5938C38.5938 81.5563 38.7288 81.9437 38.999 82.2041C39.2692 82.4613 39.6501 82.5898 40.1416 82.5898C40.5941 82.5898 40.9619 82.4401 41.2451 82.1406C41.5316 81.8411 41.6781 81.4342 41.6846 80.9199V75.8906ZM43.5938 80.2803C43.5938 79.7725 43.6914 79.3151 43.8867 78.9082C44.0853 78.5013 44.3636 78.1855 44.7217 77.9609C45.083 77.7331 45.4915 77.6191 45.9473 77.6191C46.6504 77.6191 47.2201 77.8665 47.6562 78.3613C48.0924 78.8529 48.3105 79.5055 48.3105 80.3193V80.4414C48.3105 80.9525 48.2113 81.4131 48.0127 81.8232C47.8174 82.2301 47.5407 82.5443 47.1826 82.7656C46.8245 82.987 46.416 83.0977 45.957 83.0977C45.2572 83.0977 44.6875 82.8519 44.248 82.3604C43.8118 81.8656 43.5938 81.2113 43.5938 80.3975V80.2803ZM44.1797 80.4414C44.1797 81.0729 44.3424 81.5921 44.668 81.999C44.9967 82.4027 45.4264 82.6045 45.957 82.6045C46.4844 82.6045 46.9108 82.4027 47.2363 81.999C47.5651 81.5921 47.7295 81.0566 47.7295 80.3926V80.2803C47.7295 79.8766 47.6546 79.5072 47.5049 79.1719C47.3551 78.8366 47.1452 78.5778 46.875 78.3955C46.6048 78.21 46.2956 78.1172 45.9473 78.1172C45.4264 78.1172 45.0016 78.3223 44.6729 78.7324C44.3441 79.1393 44.1797 79.6732 44.1797 80.334V80.4414ZM50.1758 83H49.5898V77.7168H50.1758V83ZM49.4873 76.1885C49.4873 76.0778 49.5231 75.985 49.5947 75.9102C49.6663 75.832 49.764 75.793 49.8877 75.793C50.0114 75.793 50.109 75.832 50.1807 75.9102C50.2555 75.985 50.293 76.0778 50.293 76.1885C50.293 76.2992 50.2555 76.3919 50.1807 76.4668C50.109 76.5417 50.0114 76.5791 49.8877 76.5791C49.764 76.5791 49.6663 76.5417 49.5947 76.4668C49.5231 76.3919 49.4873 76.2992 49.4873 76.1885ZM52.3242 77.7168L52.3438 78.6201C52.5423 78.2946 52.7897 78.0472 53.0859 77.8779C53.3822 77.7054 53.7093 77.6191 54.0674 77.6191C54.6338 77.6191 55.0553 77.7786 55.332 78.0977C55.6087 78.4167 55.7487 78.8952 55.752 79.5332V83H55.1709V79.5283C55.1676 79.0563 55.0667 78.7048 54.8682 78.4736C54.6729 78.2425 54.3587 78.127 53.9258 78.127C53.5645 78.127 53.2438 78.2409 52.9639 78.4688C52.6872 78.6934 52.4821 78.9977 52.3486 79.3818V83H51.7676V77.7168H52.3242ZM60.6055 76.3643V77.7168H61.6992V78.1953H60.6055V81.7158C60.6055 82.0088 60.6576 82.2269 60.7617 82.3701C60.8691 82.5133 61.0465 82.585 61.2939 82.585C61.3916 82.585 61.5495 82.5687 61.7676 82.5361L61.792 83.0146C61.639 83.07 61.4307 83.0977 61.167 83.0977C60.7666 83.0977 60.4753 82.9821 60.293 82.751C60.1107 82.5166 60.0195 82.1732 60.0195 81.7207V78.1953H59.0479V77.7168H60.0195V76.3643H60.6055ZM63.4912 78.6104C63.6833 78.2946 63.929 78.0505 64.2285 77.8779C64.528 77.7054 64.8551 77.6191 65.21 77.6191C65.7764 77.6191 66.1979 77.7786 66.4746 78.0977C66.7513 78.4167 66.8913 78.8952 66.8945 79.5332V83H66.3135V79.5283C66.3102 79.0563 66.2093 78.7048 66.0107 78.4736C65.8154 78.2425 65.5013 78.127 65.0684 78.127C64.707 78.127 64.3864 78.2409 64.1064 78.4688C63.8298 78.6934 63.6247 78.9977 63.4912 79.3818V83H62.9102V75.5H63.4912V78.6104ZM70.4443 83.0977C69.9951 83.0977 69.5882 82.987 69.2236 82.7656C68.8623 82.5443 68.5807 82.2367 68.3789 81.8428C68.1771 81.4456 68.0762 81.0013 68.0762 80.5098V80.2998C68.0762 79.792 68.1738 79.3346 68.3691 78.9277C68.5677 78.5208 68.8428 78.2018 69.1943 77.9707C69.5459 77.7363 69.9268 77.6191 70.3369 77.6191C70.9782 77.6191 71.486 77.8389 71.8604 78.2783C72.238 78.7145 72.4268 79.3118 72.4268 80.0703V80.3975H68.6572V80.5098C68.6572 81.1087 68.8281 81.6084 69.1699 82.0088C69.515 82.4059 69.9479 82.6045 70.4688 82.6045C70.7812 82.6045 71.0563 82.5475 71.2939 82.4336C71.5348 82.3197 71.7529 82.1374 71.9482 81.8867L72.3145 82.165C71.8848 82.7868 71.2614 83.0977 70.4443 83.0977ZM70.3369 78.1172C69.8975 78.1172 69.5264 78.2783 69.2236 78.6006C68.9242 78.9229 68.7419 79.3558 68.6768 79.8994H71.8457V79.8359C71.8294 79.3281 71.6846 78.9147 71.4111 78.5957C71.1377 78.2767 70.7796 78.1172 70.3369 78.1172ZM76.5527 77.7168L76.5723 78.6201C76.7708 78.2946 77.0182 78.0472 77.3145 77.8779C77.6107 77.7054 77.9378 77.6191 78.2959 77.6191C78.8623 77.6191 79.2839 77.7786 79.5605 78.0977C79.8372 78.4167 79.9772 78.8952 79.9805 79.5332V83H79.3994V79.5283C79.3962 79.0563 79.2952 78.7048 79.0967 78.4736C78.9014 78.2425 78.5872 78.127 78.1543 78.127C77.793 78.127 77.4723 78.2409 77.1924 78.4688C76.9157 78.6934 76.7106 78.9977 76.5771 79.3818V83H75.9961V77.7168H76.5527ZM84.8926 82.3311C84.541 82.8421 83.9795 83.0977 83.208 83.0977C82.6449 83.0977 82.2168 82.9349 81.9238 82.6094C81.6309 82.2806 81.4811 81.7956 81.4746 81.1543V77.7168H82.0557V81.0811C82.0557 82.0869 82.4626 82.5898 83.2764 82.5898C84.1227 82.5898 84.6582 82.2399 84.8828 81.54V77.7168H85.4688V83H84.9023L84.8926 82.3311ZM87.5244 77.7168L87.5439 78.5762C87.7393 78.2572 87.9834 78.0179 88.2764 77.8584C88.5693 77.6989 88.8949 77.6191 89.2529 77.6191C90.0863 77.6191 90.6152 77.9609 90.8398 78.6445C91.0286 78.3158 91.2809 78.0635 91.5967 77.8877C91.9124 77.7087 92.2607 77.6191 92.6416 77.6191C93.7744 77.6191 94.3522 78.2376 94.375 79.4746V83H93.7891V79.5186C93.7858 79.0465 93.6833 78.6966 93.4814 78.4688C93.2829 78.2409 92.9574 78.127 92.5049 78.127C92.085 78.1335 91.7301 78.2702 91.4404 78.5371C91.1507 78.8008 90.9896 79.123 90.957 79.5039V83H90.3711V79.4746C90.3678 79.0221 90.2604 78.6852 90.0488 78.4639C89.8405 78.2393 89.5182 78.127 89.082 78.127C88.7142 78.127 88.3984 78.2327 88.1348 78.4443C87.8711 78.6527 87.6758 78.9635 87.5488 79.377V83H86.9629V77.7168H87.5244ZM100.112 80.4121C100.112 81.2357 99.93 81.89 99.5654 82.375C99.2008 82.8568 98.7109 83.0977 98.0957 83.0977C97.36 83.0977 96.8034 82.8242 96.4258 82.2773L96.4014 83H95.8545V75.5H96.4355V78.4834C96.8066 77.9072 97.3568 77.6191 98.0859 77.6191C98.7109 77.6191 99.2041 77.8584 99.5654 78.3369C99.93 78.8122 100.112 79.4746 100.112 80.3242V80.4121ZM99.5264 80.3096C99.5264 79.613 99.3913 79.0758 99.1211 78.6982C98.8509 78.3174 98.4701 78.127 97.9785 78.127C97.6042 78.127 97.2868 78.2197 97.0264 78.4053C96.766 78.5876 96.569 78.8561 96.4355 79.2109V81.5938C96.7285 82.2578 97.2461 82.5898 97.9883 82.5898C98.4701 82.5898 98.846 82.3994 99.1162 82.0186C99.3896 81.6377 99.5264 81.068 99.5264 80.3096ZM103.452 83.0977C103.003 83.0977 102.596 82.987 102.231 82.7656C101.87 82.5443 101.589 82.2367 101.387 81.8428C101.185 81.4456 101.084 81.0013 101.084 80.5098V80.2998C101.084 79.792 101.182 79.3346 101.377 78.9277C101.576 78.5208 101.851 78.2018 102.202 77.9707C102.554 77.7363 102.935 77.6191 103.345 77.6191C103.986 77.6191 104.494 77.8389 104.868 78.2783C105.246 78.7145 105.435 79.3118 105.435 80.0703V80.3975H101.665V80.5098C101.665 81.1087 101.836 81.6084 102.178 82.0088C102.523 82.4059 102.956 82.6045 103.477 82.6045C103.789 82.6045 104.064 82.5475 104.302 82.4336C104.543 82.3197 104.761 82.1374 104.956 81.8867L105.322 82.165C104.893 82.7868 104.269 83.0977 103.452 83.0977ZM103.345 78.1172C102.905 78.1172 102.534 78.2783 102.231 78.6006C101.932 78.9229 101.75 79.3558 101.685 79.8994H104.854V79.8359C104.837 79.3281 104.692 78.9147 104.419 78.5957C104.146 78.2767 103.787 78.1172 103.345 78.1172ZM109.014 78.2148C108.89 78.1921 108.758 78.1807 108.618 78.1807C108.254 78.1807 107.944 78.2832 107.69 78.4883C107.44 78.6901 107.261 78.9847 107.153 79.3721V83H106.572V77.7168H107.144L107.153 78.5566C107.463 77.9316 107.959 77.6191 108.643 77.6191C108.805 77.6191 108.934 77.6403 109.028 77.6826L109.014 78.2148ZM113.105 81.6572C113.105 81.3675 112.988 81.1348 112.754 80.959C112.523 80.7832 112.173 80.6465 111.704 80.5488C111.235 80.4479 110.871 80.334 110.61 80.207C110.353 80.0768 110.161 79.9189 110.034 79.7334C109.91 79.5479 109.849 79.3232 109.849 79.0596C109.849 78.6429 110.023 78.2995 110.371 78.0293C110.719 77.7559 111.165 77.6191 111.709 77.6191C112.298 77.6191 112.77 77.7656 113.125 78.0586C113.483 78.3483 113.662 78.7275 113.662 79.1963H113.076C113.076 78.887 112.946 78.6299 112.686 78.4248C112.428 78.2197 112.103 78.1172 111.709 78.1172C111.325 78.1172 111.016 78.2035 110.781 78.376C110.55 78.5452 110.435 78.7666 110.435 79.04C110.435 79.3037 110.531 79.5088 110.723 79.6553C110.918 79.7985 111.271 79.9303 111.782 80.0508C112.297 80.1712 112.681 80.2998 112.935 80.4365C113.192 80.5732 113.382 80.7376 113.506 80.9297C113.63 81.1217 113.691 81.3545 113.691 81.6279C113.691 82.0739 113.511 82.4303 113.149 82.6973C112.791 82.9642 112.323 83.0977 111.743 83.0977C111.128 83.0977 110.628 82.9495 110.244 82.6533C109.863 82.3538 109.673 81.9762 109.673 81.5205H110.259C110.282 81.8623 110.425 82.1292 110.688 82.3213C110.955 82.5101 111.307 82.6045 111.743 82.6045C112.15 82.6045 112.479 82.515 112.729 82.3359C112.98 82.1569 113.105 81.9307 113.105 81.6572ZM4.09668 95C4.03809 94.834 4.00065 94.5882 3.98438 94.2627C3.7793 94.5296 3.51725 94.7363 3.19824 94.8828C2.88249 95.026 2.5472 95.0977 2.19238 95.0977C1.68457 95.0977 1.27279 94.9561 0.957031 94.6729C0.644531 94.3896 0.488281 94.0316 0.488281 93.5986C0.488281 93.0843 0.701497 92.6774 1.12793 92.3779C1.55762 92.0785 2.15495 91.9287 2.91992 91.9287H3.97949V91.3281C3.97949 90.9505 3.8623 90.6543 3.62793 90.4395C3.39681 90.2214 3.05827 90.1123 2.6123 90.1123C2.2054 90.1123 1.86849 90.2165 1.60156 90.4248C1.33464 90.6331 1.20117 90.8838 1.20117 91.1768L0.615234 91.1719C0.615234 90.752 0.810547 90.389 1.20117 90.083C1.5918 89.7738 2.07194 89.6191 2.6416 89.6191C3.23079 89.6191 3.69466 89.7673 4.0332 90.0635C4.375 90.3564 4.55078 90.7666 4.56055 91.2939V93.7939C4.56055 94.305 4.61426 94.6875 4.72168 94.9414V95H4.09668ZM2.26074 94.5801C2.65137 94.5801 2.99967 94.4857 3.30566 94.2969C3.61491 94.1081 3.83952 93.8558 3.97949 93.54V92.3779H2.93457C2.35189 92.3844 1.89616 92.4919 1.56738 92.7002C1.23861 92.9053 1.07422 93.1885 1.07422 93.5498C1.07422 93.846 1.18327 94.0918 1.40137 94.2871C1.62272 94.4824 1.90918 94.5801 2.26074 94.5801ZM6.67969 89.7168L6.69922 90.6201C6.89779 90.2946 7.14518 90.0472 7.44141 89.8779C7.73763 89.7054 8.06478 89.6191 8.42285 89.6191C8.98926 89.6191 9.41081 89.7786 9.6875 90.0977C9.96419 90.4167 10.1042 90.8952 10.1074 91.5332V95H9.52637V91.5283C9.52311 91.0563 9.4222 90.7048 9.22363 90.4736C9.02832 90.2425 8.71419 90.127 8.28125 90.127C7.91992 90.127 7.59928 90.2409 7.31934 90.4688C7.04264 90.6934 6.83757 90.9977 6.7041 91.3818V95H6.12305V89.7168H6.67969ZM11.3867 92.3096C11.3867 91.4893 11.569 90.8366 11.9336 90.3516C12.3014 89.8633 12.7995 89.6191 13.4277 89.6191C14.1406 89.6191 14.6842 89.9007 15.0586 90.4639V87.5H15.6396V95H15.0928L15.0684 94.2969C14.694 94.8307 14.1439 95.0977 13.418 95.0977C12.8092 95.0977 12.3177 94.8535 11.9434 94.3652C11.5723 93.8737 11.3867 93.2113 11.3867 92.3779V92.3096ZM11.9775 92.4121C11.9775 93.0859 12.1126 93.6182 12.3828 94.0088C12.653 94.3962 13.0339 94.5898 13.5254 94.5898C14.2448 94.5898 14.7559 94.2725 15.0586 93.6377V91.1572C14.7559 90.4704 14.248 90.127 13.5352 90.127C13.0436 90.127 12.6611 90.3206 12.3877 90.708C12.1143 91.0921 11.9775 91.6602 11.9775 92.4121ZM19.375 92.3096C19.375 91.4827 19.5573 90.8285 19.9219 90.3467C20.2897 89.8617 20.7878 89.6191 21.416 89.6191C22.1354 89.6191 22.6823 89.9056 23.0566 90.4785L23.0859 89.7168H23.6328V94.8926C23.6328 95.5729 23.4424 96.1117 23.0615 96.5088C22.6807 96.9059 22.1647 97.1045 21.5137 97.1045C21.1458 97.1045 20.7943 97.0215 20.459 96.8555C20.127 96.6927 19.8649 96.4746 19.6729 96.2012L20 95.8496C20.4134 96.3574 20.9049 96.6113 21.4746 96.6113C21.9629 96.6113 22.3438 96.4665 22.6172 96.1768C22.8906 95.8903 23.0322 95.4915 23.042 94.9805V94.3164C22.6676 94.8372 22.1224 95.0977 21.4062 95.0977C20.7943 95.0977 20.3027 94.8535 19.9316 94.3652C19.5605 93.877 19.375 93.2178 19.375 92.3877V92.3096ZM19.9658 92.4121C19.9658 93.0859 20.1009 93.6182 20.3711 94.0088C20.6413 94.3962 21.0221 94.5898 21.5137 94.5898C22.2331 94.5898 22.7425 94.2676 23.042 93.623V91.167C22.9053 90.8285 22.7083 90.5713 22.4512 90.3955C22.194 90.2165 21.8848 90.127 21.5234 90.127C21.0319 90.127 20.6494 90.3206 20.376 90.708C20.1025 91.0921 19.9658 91.6602 19.9658 92.4121ZM27.2021 95.0977C26.7529 95.0977 26.346 94.987 25.9814 94.7656C25.6201 94.5443 25.3385 94.2367 25.1367 93.8428C24.9349 93.4456 24.834 93.0013 24.834 92.5098V92.2998C24.834 91.792 24.9316 91.3346 25.127 90.9277C25.3255 90.5208 25.6006 90.2018 25.9521 89.9707C26.3037 89.7363 26.6846 89.6191 27.0947 89.6191C27.736 89.6191 28.2438 89.8389 28.6182 90.2783C28.9958 90.7145 29.1846 91.3118 29.1846 92.0703V92.3975H25.415V92.5098C25.415 93.1087 25.5859 93.6084 25.9277 94.0088C26.2728 94.4059 26.7057 94.6045 27.2266 94.6045C27.5391 94.6045 27.8141 94.5475 28.0518 94.4336C28.2926 94.3197 28.5107 94.1374 28.7061 93.8867L29.0723 94.165C28.6426 94.7868 28.0192 95.0977 27.2021 95.0977ZM27.0947 90.1172C26.6553 90.1172 26.2842 90.2783 25.9814 90.6006C25.682 90.9229 25.4997 91.3558 25.4346 91.8994H28.6035V91.8359C28.5872 91.3281 28.4424 90.9147 28.1689 90.5957C27.8955 90.2767 27.5374 90.1172 27.0947 90.1172ZM31.2305 88.3643V89.7168H32.3242V90.1953H31.2305V93.7158C31.2305 94.0088 31.2826 94.2269 31.3867 94.3701C31.4941 94.5133 31.6715 94.585 31.9189 94.585C32.0166 94.585 32.1745 94.5687 32.3926 94.5361L32.417 95.0146C32.264 95.07 32.0557 95.0977 31.792 95.0977C31.3916 95.0977 31.1003 94.9821 30.918 94.751C30.7357 94.5166 30.6445 94.1732 30.6445 93.7207V90.1953H29.6729V89.7168H30.6445V88.3643H31.2305ZM36.875 88.3643V89.7168H37.9688V90.1953H36.875V93.7158C36.875 94.0088 36.9271 94.2269 37.0312 94.3701C37.1387 94.5133 37.3161 94.585 37.5635 94.585C37.6611 94.585 37.819 94.5687 38.0371 94.5361L38.0615 95.0146C37.9085 95.07 37.7002 95.0977 37.4365 95.0977C37.0361 95.0977 36.7448 94.9821 36.5625 94.751C36.3802 94.5166 36.2891 94.1732 36.2891 93.7207V90.1953H35.3174V89.7168H36.2891V88.3643H36.875ZM38.7598 92.2803C38.7598 91.7725 38.8574 91.3151 39.0527 90.9082C39.2513 90.5013 39.5296 90.1855 39.8877 89.9609C40.249 89.7331 40.6576 89.6191 41.1133 89.6191C41.8164 89.6191 42.3861 89.8665 42.8223 90.3613C43.2585 90.8529 43.4766 91.5055 43.4766 92.3193V92.4414C43.4766 92.9525 43.3773 93.4131 43.1787 93.8232C42.9834 94.2301 42.7067 94.5443 42.3486 94.7656C41.9906 94.987 41.582 95.0977 41.123 95.0977C40.4232 95.0977 39.8535 94.8519 39.4141 94.3604C38.9779 93.8656 38.7598 93.2113 38.7598 92.3975V92.2803ZM39.3457 92.4414C39.3457 93.0729 39.5085 93.5921 39.834 93.999C40.1628 94.4027 40.5924 94.6045 41.123 94.6045C41.6504 94.6045 42.0768 94.4027 42.4023 93.999C42.7311 93.5921 42.8955 93.0566 42.8955 92.3926V92.2803C42.8955 91.8766 42.8206 91.5072 42.6709 91.1719C42.5212 90.8366 42.3112 90.5778 42.041 90.3955C41.7708 90.21 41.4616 90.1172 41.1133 90.1172C40.5924 90.1172 40.1676 90.3223 39.8389 90.7324C39.5101 91.1393 39.3457 91.6732 39.3457 92.334V92.4414ZM48.0273 88.3643V89.7168H49.1211V90.1953H48.0273V93.7158C48.0273 94.0088 48.0794 94.2269 48.1836 94.3701C48.291 94.5133 48.4684 94.585 48.7158 94.585C48.8135 94.585 48.9714 94.5687 49.1895 94.5361L49.2139 95.0146C49.0609 95.07 48.8525 95.0977 48.5889 95.0977C48.1885 95.0977 47.8971 94.9821 47.7148 94.751C47.5326 94.5166 47.4414 94.1732 47.4414 93.7207V90.1953H46.4697V89.7168H47.4414V88.3643H48.0273ZM50.9131 90.6104C51.1051 90.2946 51.3509 90.0505 51.6504 89.8779C51.9499 89.7054 52.277 89.6191 52.6318 89.6191C53.1982 89.6191 53.6198 89.7786 53.8965 90.0977C54.1732 90.4167 54.3132 90.8952 54.3164 91.5332V95H53.7354V91.5283C53.7321 91.0563 53.6312 90.7048 53.4326 90.4736C53.2373 90.2425 52.9232 90.127 52.4902 90.127C52.1289 90.127 51.8083 90.2409 51.5283 90.4688C51.2516 90.6934 51.0465 90.9977 50.9131 91.3818V95H50.332V87.5H50.9131V90.6104ZM57.8662 95.0977C57.417 95.0977 57.0101 94.987 56.6455 94.7656C56.2842 94.5443 56.0026 94.2367 55.8008 93.8428C55.599 93.4456 55.498 93.0013 55.498 92.5098V92.2998C55.498 91.792 55.5957 91.3346 55.791 90.9277C55.9896 90.5208 56.2646 90.2018 56.6162 89.9707C56.9678 89.7363 57.3486 89.6191 57.7588 89.6191C58.4001 89.6191 58.9079 89.8389 59.2822 90.2783C59.6598 90.7145 59.8486 91.3118 59.8486 92.0703V92.3975H56.0791V92.5098C56.0791 93.1087 56.25 93.6084 56.5918 94.0088C56.9368 94.4059 57.3698 94.6045 57.8906 94.6045C58.2031 94.6045 58.4782 94.5475 58.7158 94.4336C58.9567 94.3197 59.1748 94.1374 59.3701 93.8867L59.7363 94.165C59.3066 94.7868 58.6833 95.0977 57.8662 95.0977ZM57.7588 90.1172C57.3193 90.1172 56.9482 90.2783 56.6455 90.6006C56.346 90.9229 56.1637 91.3558 56.0986 91.8994H59.2676V91.8359C59.2513 91.3281 59.1064 90.9147 58.833 90.5957C58.5596 90.2767 58.2015 90.1172 57.7588 90.1172ZM86.2305 93.0225H85.6885L85.6592 87.8906H86.2646L86.2305 93.0225ZM85.5908 94.6582C85.5908 94.5475 85.6266 94.4548 85.6982 94.3799C85.7699 94.3018 85.8675 94.2627 85.9912 94.2627C86.1149 94.2627 86.2126 94.3018 86.2842 94.3799C86.359 94.4548 86.3965 94.5475 86.3965 94.6582C86.3965 94.7656 86.359 94.8568 86.2842 94.9316C86.2126 95.0033 86.1149 95.0391 85.9912 95.0391C85.8675 95.0391 85.7699 95.0033 85.6982 94.9316C85.6266 94.8568 85.5908 94.7656 85.5908 94.6582Z" fill="black"/>
<path d="M66.0449 95H65.459V88.5938L63.5254 89.3115V88.7646L65.9473 87.8662H66.0449V95ZM73.1592 92.0361C73.1592 93.0387 72.9753 93.8005 72.6074 94.3213C72.2396 94.8389 71.6976 95.0977 70.9814 95.0977C70.2783 95.0977 69.7396 94.8438 69.3652 94.3359C68.9909 93.8249 68.7988 93.0827 68.7891 92.1094V90.835C68.7891 89.8356 68.9746 89.0788 69.3457 88.5645C69.7168 88.0501 70.2588 87.793 70.9717 87.793C71.6748 87.793 72.2119 88.042 72.583 88.54C72.9541 89.0348 73.1462 89.7656 73.1592 90.7324V92.0361ZM72.5732 90.7617C72.5732 89.9479 72.4398 89.3327 72.1729 88.916C71.9092 88.4993 71.5088 88.291 70.9717 88.291C70.4443 88.291 70.0472 88.4945 69.7803 88.9014C69.5133 89.3083 69.3766 89.9089 69.3701 90.7031V92.0996C69.3701 92.9102 69.5068 93.5303 69.7803 93.96C70.057 94.3896 70.4574 94.6045 70.9814 94.6045C71.5023 94.6045 71.8962 94.3945 72.1631 93.9746C72.4333 93.5547 72.57 92.9395 72.5732 92.1289V90.7617ZM78.8721 95H74.4189V94.5508L76.8555 91.7871C77.2591 91.3216 77.5391 90.9375 77.6953 90.6348C77.8516 90.332 77.9297 90.0374 77.9297 89.751C77.9297 89.3018 77.7979 88.9469 77.5342 88.6865C77.2705 88.4229 76.9076 88.291 76.4453 88.291C75.9668 88.291 75.5794 88.444 75.2832 88.75C74.9902 89.056 74.8438 89.4531 74.8438 89.9414H74.2627C74.2627 89.541 74.3522 89.1764 74.5312 88.8477C74.7135 88.5189 74.9707 88.2617 75.3027 88.0762C75.638 87.8874 76.0189 87.793 76.4453 87.793C77.0964 87.793 77.6042 87.9639 77.9688 88.3057C78.3366 88.6475 78.5205 89.113 78.5205 89.7021C78.5205 90.0342 78.4163 90.3971 78.208 90.791C78.0029 91.1849 77.64 91.6764 77.1191 92.2656L75.1367 94.5068H78.8721V95ZM83.5547 92.71H84.6631V93.2031H83.5547V95H82.9688V93.2031H79.624V92.8711L82.915 87.8906H83.5547V92.71ZM80.3418 92.71H82.9688V88.6475L82.71 89.0967L80.3418 92.71Z" fill="#1400FF"/>
</svg>
