<svg width="32" height="32" viewBox="0 0 32 32" fill="none" xmlns="http://www.w3.org/2000/svg">
<path d="M29.5385 12.3077H32V14.7692H29.5385V12.3077ZM29.5385 9.84615H32V12.3077H29.5385V9.84615ZM29.5385 7.38462H32V9.84615H29.5385V7.38462ZM29.5385 4.92308H32V7.38462H29.5385V4.92308ZM27.0769 12.3077H29.5385V14.7692H27.0769V12.3077ZM27.0769 4.92308H29.5385V7.38462H27.0769V4.92308ZM24.6154 14.7692H27.0769V17.2308H24.6154V14.7692ZM24.6154 12.3077H27.0769V14.7692H24.6154V12.3077ZM24.6154 9.84615H27.0769V12.3077H24.6154V9.84615ZM24.6154 7.38462H27.0769V9.84615H24.6154V7.38462ZM24.6154 4.92308H27.0769V7.38462H24.6154V4.92308ZM24.6154 2.46154H27.0769V4.92308H24.6154V2.46154ZM24.6154 0H27.0769V2.46154H24.6154V0ZM22.1538 29.5385H24.6154V32H22.1538V29.5385ZM22.1538 17.2308H24.6154V19.6923H22.1538V17.2308Z" fill="#F0C21F"/>
<path d="M22.1538 14.7692L24.6154 14.7692V17.2308H22.1538V14.7692ZM22.1538 12.3077L24.6154 12.3077V14.7692L22.1538 14.7692V12.3077ZM22.1538 9.84616L24.6154 9.84615V12.3077L22.1538 12.3077V9.84616ZM22.1538 7.38462L24.6154 7.38462V9.84615L22.1538 9.84616V7.38462ZM22.1538 4.92308L24.6154 4.92308V7.38462L22.1538 7.38462V4.92308Z" fill="#F0C21F"/>
<path d="M22.1538 2.46154L24.6154 2.46154V4.92308L22.1538 4.92308V2.46154Z" fill="#F0C21F"/>
<path d="M22.1539 0H24.6154V2.46154L22.1538 2.46154L22.1539 0ZM19.6923 29.5385H22.1538V32H19.6923V29.5385ZM19.6923 27.0769H22.1539L22.1538 29.5385H19.6923V27.0769ZM19.6923 19.6923H22.1538L22.1539 22.1538H19.6923V19.6923Z" fill="#F0C21F"/>
<path d="M19.6923 17.2308L22.1538 17.2308V19.6923H19.6923V17.2308Z" fill="#F0C21F"/>
<path d="M19.6923 14.7692L22.1538 14.7692V17.2308L19.6923 17.2308V14.7692ZM19.6923 12.3077L22.1538 12.3077V14.7692L19.6923 14.7692V12.3077ZM19.6923 9.84616L22.1538 9.84616V12.3077L19.6923 12.3077V9.84616ZM19.6923 7.38462L22.1538 7.38462V9.84616L19.6923 9.84616V7.38462ZM19.6923 4.92308L22.1538 4.92308V7.38462L19.6923 7.38462V4.92308ZM19.6923 2.46154H22.1538V4.92308L19.6923 4.92308V2.46154Z" fill="#F0C21F"/>
<path d="M19.6923 0H22.1539L22.1538 2.46154H19.6923L19.6923 0ZM17.2308 29.5385H19.6923V32H17.2308V29.5385Z" fill="#F0C21F"/>
<path d="M17.2308 27.0769H19.6923V29.5385H17.2308V27.0769Z" fill="#F0C21F"/>
<path d="M17.2308 24.6154H19.6923L19.6923 27.0769H17.2308V24.6154ZM17.2308 19.6923L19.6923 19.6923V22.1538L17.2308 22.1538V19.6923Z" fill="#F0C21F"/>
<path d="M17.2308 17.2308H19.6923V19.6923L17.2308 19.6923V17.2308Z" fill="#F0C21F"/>
<path d="M17.2308 14.7692H19.6923V17.2308H17.2308V14.7692ZM17.2308 12.3077H19.6923V14.7692H17.2308V12.3077ZM17.2308 9.84616H19.6923V12.3077H17.2308V9.84616ZM17.2308 7.38462H19.6923V9.84616H17.2308V7.38462ZM17.2308 4.92308H19.6923V7.38462H17.2308V4.92308ZM17.2308 2.46154H19.6923V4.92308H17.2308V2.46154Z" fill="#F0C21F"/>
<path d="M17.2308 0H19.6923L19.6923 2.46154H17.2308L17.2308 0ZM14.7692 29.5385H17.2308V32H14.7692V29.5385Z" fill="#F0C21F"/>
<path d="M14.7692 27.0769H17.2308V29.5385H14.7692V27.0769Z" fill="#F0C21F"/>
<path d="M14.7692 24.6154H17.2308V27.0769H14.7692V24.6154ZM14.7692 22.1538H17.2308V24.6154H14.7692V22.1538ZM14.7692 19.6923H17.2308V22.1538H14.7692V19.6923Z" fill="#F0C21F"/>
<path d="M14.7692 17.2308H17.2308V19.6923H14.7692V17.2308Z" fill="#F0C21F"/>
<path d="M14.7692 14.7692H17.2308V17.2308H14.7692V14.7692ZM14.7692 12.3077H17.2308V14.7692H14.7692V12.3077ZM14.7692 9.84616H17.2308V12.3077H14.7692V9.84616ZM14.7692 7.38462H17.2308V9.84616H14.7692V7.38462ZM14.7692 4.92308H17.2308V7.38462H14.7692V4.92308ZM14.7692 2.46154H17.2308V4.92308H14.7692V2.46154Z" fill="#F0C21F"/>
<path d="M14.7692 0H17.2308L17.2308 2.46154H14.7692L14.7692 0ZM12.3077 29.5385H14.7692V32H12.3077V29.5385Z" fill="#F0C21F"/>
<path d="M12.3077 27.0769H14.7692V29.5385H12.3077V27.0769Z" fill="#F0C21F"/>
<path d="M12.3077 24.6154H14.7692V27.0769H12.3077V24.6154ZM12.3077 19.6923H14.7692V22.1538H12.3077V19.6923Z" fill="#F0C21F"/>
<path d="M12.3077 17.2308H14.7692V19.6923H12.3077V17.2308Z" fill="#F0C21F"/>
<path d="M12.3077 14.7692H14.7692V17.2308H12.3077V14.7692ZM12.3077 12.3077H14.7692V14.7692H12.3077V12.3077ZM12.3077 9.84616H14.7692V12.3077H12.3077V9.84616ZM12.3077 7.38462H14.7692V9.84616H12.3077V7.38462ZM12.3077 4.92308H14.7692V7.38462H12.3077V4.92308ZM12.3077 2.46154H14.7692V4.92308H12.3077V2.46154Z" fill="#F0C21F"/>
<path d="M12.3077 0H14.7692L14.7692 2.46154H12.3077L12.3077 0ZM9.84616 29.5385H12.3077V32H9.84616V29.5385ZM9.84616 27.0769H12.3077V29.5385H9.84616V27.0769ZM9.84616 19.6923L12.3077 19.6923V22.1538L9.84616 22.1538V19.6923Z" fill="#F0C21F"/>
<path d="M9.84616 17.2308H12.3077V19.6923L9.84616 19.6923V17.2308Z" fill="#F0C21F"/>
<path d="M9.84616 14.7692L12.3077 14.7692V17.2308H9.84616V14.7692ZM9.84616 12.3077L12.3077 12.3077V14.7692L9.84616 14.7692V12.3077ZM9.84616 9.84616L12.3077 9.84616V12.3077L9.84616 12.3077V9.84616Z" fill="#F0C21F"/>
<path d="M9.84616 7.38462H12.3077V9.84616L9.84616 9.84616V7.38462ZM9.84616 4.92308L12.3077 4.92308V7.38462H9.84616V4.92308Z" fill="#F0C21F"/>
<path d="M9.84616 2.46154H12.3077V4.92308L9.84616 4.92308V2.46154Z" fill="#F0C21F"/>
<path d="M9.84614 0H12.3077L12.3077 2.46154H9.84616L9.84614 0ZM7.3846 29.5385H9.84616V32H7.3846V29.5385ZM7.3846 17.2308L9.84616 17.2308V19.6923H7.3846V17.2308Z" fill="#F0C21F"/>
<path d="M7.3846 14.7692L9.84616 14.7692V17.2308L7.3846 17.2308V14.7692ZM7.3846 12.3077L9.84616 12.3077V14.7692L7.3846 14.7692V12.3077ZM7.3846 9.84616L9.84616 9.84616V12.3077L7.3846 12.3077V9.84616ZM7.3846 7.38462H9.84616V9.84616L7.3846 9.84616V7.38462ZM7.3846 4.92308L9.84616 4.92308V7.38462H7.3846V4.92308ZM7.3846 2.46154H9.84616V4.92308L7.3846 4.92308V2.46154Z" fill="#F0C21F"/>
<path d="M7.38461 0H9.84614L9.84616 2.46154H7.3846L7.38461 0ZM4.92308 14.7692L7.3846 14.7692V17.2308H4.92308V14.7692ZM4.92308 12.3077L7.3846 12.3077V14.7692L4.92308 14.7692V12.3077ZM4.92308 9.84615L7.3846 9.84616V12.3077L4.92308 12.3077V9.84615ZM4.92308 7.38462L7.3846 7.38462V9.84616L4.92308 9.84615V7.38462ZM4.92308 4.92308L7.3846 4.92308V7.38462L4.92308 7.38462V4.92308ZM4.92308 2.46154L7.3846 2.46154V4.92308L4.92308 4.92308V2.46154ZM4.92308 0H7.38461L7.3846 2.46154L4.92308 2.46154V0ZM2.46154 12.3077H4.92308V14.7692H2.46154V12.3077ZM2.46154 4.92308H4.92308V7.38462H2.46154V4.92308ZM0 12.3077H2.46154V14.7692H0V12.3077ZM0 9.84615H2.46154V12.3077H0V9.84615ZM0 7.38462H2.46154V9.84615H0V7.38462ZM0 4.92308H2.46154V7.38462H0V4.92308Z" fill="#F0C21F"/>
</svg>
