<svg width="234" height="138" viewBox="0 0 234 138" fill="none" xmlns="http://www.w3.org/2000/svg">
<path d="M13.8789 128H8.26758V110.137L2.75586 111.747V107.497L13.3643 103.828H13.8789V128ZM38.9712 118.122C38.9712 121.387 38.2352 123.905 36.7632 125.676C35.3022 127.447 33.2381 128.332 30.5708 128.332C27.8813 128.332 25.8006 127.441 24.3286 125.659C22.8566 123.877 22.1206 121.365 22.1206 118.122V113.706C22.1206 110.441 22.8511 107.923 24.312 106.152C25.784 104.382 27.8592 103.496 30.5376 103.496C33.216 103.496 35.2912 104.387 36.7632 106.169C38.2352 107.951 38.9712 110.469 38.9712 113.723V118.122ZM33.3764 112.992C33.3764 111.255 33.1496 109.96 32.6958 109.107C32.242 108.244 31.5226 107.812 30.5376 107.812C29.5747 107.812 28.8719 108.211 28.4292 109.008C27.9975 109.805 27.7651 111.011 27.7319 112.627V118.803C27.7319 120.607 27.9588 121.929 28.4126 122.771C28.8664 123.601 29.5858 124.016 30.5708 124.016C31.5226 124.016 32.2254 123.612 32.6792 122.804C33.133 121.985 33.3654 120.706 33.3764 118.969V112.992ZM59.7636 128H42.8964V124.348L50.666 116.18C52.5807 113.999 53.538 112.267 53.538 110.983C53.538 109.943 53.3112 109.152 52.8574 108.609C52.4036 108.067 51.7451 107.796 50.8818 107.796C50.0296 107.796 49.3379 108.161 48.8066 108.892C48.2754 109.611 48.0097 110.513 48.0097 111.598H42.3984C42.3984 110.115 42.7692 108.748 43.5107 107.497C44.2522 106.235 45.2815 105.25 46.5986 104.542C47.9157 103.834 49.3877 103.479 51.0146 103.479C53.6266 103.479 55.6354 104.083 57.041 105.289C58.4576 106.495 59.166 108.228 59.166 110.485C59.166 111.437 58.9889 112.367 58.6347 113.274C58.2806 114.171 57.7272 115.117 56.9746 116.113C56.233 117.098 55.0322 118.421 53.372 120.081L50.2509 123.684H59.7636V128ZM78.3813 118.554H80.8383V122.87H78.3813V128H72.7866V122.87H63.4399L63.1079 119.45L72.7866 103.878V103.828H78.3813V118.554ZM68.437 118.554H72.7866V111.116L72.4379 111.681L68.437 118.554ZM107.93 115.59H97.0158L96.7438 113.754L93.6158 114.638V109.436H95.8598V112.53H107.93V115.59ZM115.648 112.53V108.79H107.93V105.9H114.186V102.228H107.93V99.202H103.918V102.228H97.8998V105.9H103.918V108.79H96.4378V105.594H93.6158V99.236H89.9098V105.594H88.3118C88.5158 104.234 88.6858 102.874 88.8218 101.514L85.4558 100.97C85.1498 104.982 84.6058 109.198 83.5178 111.918C84.2998 112.326 85.7618 113.244 86.3738 113.754C86.8498 112.53 87.2918 111.068 87.6318 109.436H89.9098V115.692C87.6318 116.304 85.5238 116.848 83.8578 117.222L84.8098 121.098C86.3398 120.656 88.0738 120.146 89.9098 119.602V130.958H93.6158V118.48C94.6018 118.174 95.6218 117.834 96.6078 117.528V119.33H100.722L97.7978 121.132C99.2598 122.764 100.994 125.008 101.674 126.47L104.904 124.396C104.088 122.9 102.32 120.826 100.824 119.33H107.93V126.368C107.93 126.81 107.794 126.912 107.216 126.946C106.672 126.946 104.836 126.946 103.136 126.878C103.68 128 104.224 129.734 104.36 130.89C106.91 130.89 108.814 130.822 110.208 130.21C111.568 129.564 111.908 128.476 111.908 126.436V119.33H115.342V115.59H111.908V112.53H115.648ZM130.88 108.892H124.318V104.234H130.88V108.892ZM134.79 100.664H120.68V112.496H134.79V100.664ZM128.602 115.318C128.636 114.604 128.67 113.89 128.704 113.176H124.896C124.862 113.89 124.828 114.604 124.794 115.318H119.728V118.956H124.488C123.91 122.934 122.516 125.994 118.674 128.068C119.49 128.748 120.578 130.142 121.054 131.094C125.916 128.442 127.582 124.26 128.262 118.956H131.594C131.356 123.92 131.084 125.892 130.642 126.47C130.336 126.81 130.098 126.878 129.622 126.878C129.078 126.878 127.99 126.878 126.8 126.742C127.412 127.796 127.82 129.394 127.888 130.584C129.418 130.618 130.812 130.584 131.662 130.448C132.682 130.278 133.362 129.972 134.042 129.088C134.96 127.966 135.266 124.736 135.572 116.882C135.606 116.372 135.64 115.318 135.64 115.318H128.602ZM142.134 103.316H138.224V122.458H142.134V103.316ZM145.296 99.882V126.096C145.296 126.674 145.092 126.878 144.48 126.878C143.868 126.878 141.964 126.878 140.026 126.81C140.57 127.966 141.148 129.802 141.318 130.992C144.242 130.992 146.248 130.856 147.574 130.176C148.866 129.496 149.308 128.374 149.308 126.13V99.882H145.296ZM166.308 105.322L165.594 105.492H163.826V99.236H159.814V105.492H154.714V109.164H163.418C161.072 113.142 157.264 116.746 153.456 118.786C154.068 119.534 154.986 121.54 155.36 122.628C156.856 121.71 158.352 120.588 159.814 119.262V130.958H163.826V117.698C165.084 119.092 166.376 120.588 167.158 121.642L169.64 118.31C168.892 117.63 166.342 115.318 164.642 113.89C166.24 111.714 167.6 109.3 168.586 106.784L166.308 105.322ZM176.542 126.64C175.216 126.64 175.012 126.368 175.012 124.43V99.848H170.898V124.396C170.898 129.19 172.02 130.55 175.93 130.55H180.86C184.566 130.55 185.586 128.306 186.028 122.39C184.94 122.152 183.24 121.336 182.22 120.622C182.016 125.416 181.778 126.64 180.452 126.64H176.542ZM201.804 114.196L198.676 115.08V109.606H201.498V105.764H198.676V99.236H194.97V105.764H193.372C193.576 104.404 193.746 103.078 193.882 101.718L190.516 101.14C190.21 105.152 189.632 109.402 188.578 112.088C189.326 112.53 190.822 113.448 191.434 113.958C191.91 112.734 192.318 111.272 192.692 109.606H194.97V116.1C192.658 116.746 190.584 117.29 188.884 117.664L189.87 121.506C191.434 121.098 193.134 120.554 194.97 120.01V130.992H198.676V118.888C199.934 118.514 201.124 118.106 202.348 117.766L201.804 114.196ZM207.856 104.472C208.332 102.976 208.774 101.446 209.114 99.882L205.442 99.202C204.422 104.2 202.552 109.062 199.866 112.02C200.682 112.53 202.28 113.652 202.926 114.298C204.252 112.666 205.442 110.558 206.428 108.212H208.162C206.666 113.142 204.014 118.174 200.648 120.826C201.702 121.404 202.994 122.322 203.742 123.104C207.176 119.84 210.032 113.754 211.528 108.212H213.126C211.426 116.168 208.026 123.886 202.586 127.796C203.708 128.374 205.102 129.36 205.884 130.142C211.358 125.62 214.86 116.78 216.526 108.212H216.696C216.152 120.418 215.54 125.042 214.69 126.13C214.282 126.64 213.942 126.776 213.432 126.776C212.786 126.776 211.664 126.776 210.406 126.64C211.018 127.762 211.426 129.428 211.528 130.584C212.99 130.652 214.418 130.652 215.37 130.482C216.492 130.244 217.24 129.87 218.022 128.714C219.314 127.014 219.926 121.472 220.572 106.308C220.606 105.832 220.64 104.472 220.64 104.472H207.856Z" fill="#1296DB"/>
<path d="M68.9927 69.1013L65.9416 68.2984C67.3228 64.8233 67.1596 56.7062 66.5067 52.3278L74.0777 55.2132C74.0777 55.2132 72.0813 58.6257 71.0769 61.2226C69.9469 64.1207 69.1433 68.9131 68.9927 69.1013ZM75.7978 55.8907L74.0777 61.6618L85.4153 62.7783L79.9663 70.4688L84.8503 71.2716L90.5379 59.6669C90.5379 59.6669 86.9471 59.2279 83.08 58.2493C79.2254 57.2457 75.7978 55.8907 75.7978 55.8907Z" fill="#1296DB"/>
<path d="M73.2364 65.4254L79.5644 66.0652C79.5644 66.0652 76.7018 70.8828 73.9897 76.3652C71.2778 81.8602 69.7084 86.0002 69.7084 86.0002L83.0926 80.0787L81.3473 86.891C81.3473 86.891 79.8909 87.0164 73.4875 88.271C67.6869 89.4 65 90.341 65 90.341L73.2364 65.4254ZM92.9989 60.1688L85.4154 86.8031C85.4154 86.8031 86.8968 86.4894 90.0106 86.1633C92.4715 85.9124 93.7899 85.9501 93.7899 85.9501L94.5181 66.9686L98.8498 68.0475L100.532 85.812C100.532 85.812 101.524 85.6992 103.96 85.6364C106.396 85.5862 107.501 85.6991 107.501 85.6991V79.2381L102.93 81.2706L105.015 62.0882C105.015 62.0882 102.642 61.9754 98.9251 61.4861C96.4517 61.1725 92.9989 60.1688 92.9989 60.1688ZM113.54 61.9126C113.54 61.9126 114.544 61.9377 117.909 61.9126C120.031 61.9001 122.881 61.6742 122.881 61.6742L115.398 86.0755C115.398 86.0755 114.959 85.9375 113.54 85.8748C112.096 85.812 111.769 85.8246 111.769 85.8246L113.54 61.9126ZM123.923 72.1499L122.366 77.3939V87.7566C122.366 87.7566 124.451 87.5809 126.233 87.5685C128.38 87.5559 130.101 87.719 130.101 87.719L123.923 72.1499ZM132.976 60.5327C132.976 60.5327 136.19 60.219 139.166 59.6042C142.769 58.8641 146.034 57.8227 146.034 57.8227L145.707 60.8714L132.561 68.612L132.976 60.5327ZM152.01 56.8568C152.01 56.8568 154.86 56.4552 158.84 55.4517C162.971 54.4104 165.67 53.5698 165.67 53.5698C165.67 53.5698 165.357 54.5609 165.357 57.6974C165.357 60.2692 165.432 61.6742 165.432 61.6742L151.533 59.8927L152.01 56.8568ZM146.046 63.7444V68.1478L133.415 82.3369L132.561 74.0693L146.046 63.7444ZM151.52 62.4898L166.072 68.1855C166.072 68.1855 166.035 70.3183 167.039 75.1608C168.043 80.0034 169.764 84.8084 169.764 84.8084L151.244 66.7303L151.52 62.4898ZM152.638 73.969L146.209 74.5461L137.333 87.7566C137.333 87.7566 144.904 87.9448 150.127 88.409C155.337 88.8732 164.151 90.1277 164.151 90.1277L152.638 73.969ZM156.944 85.4482C156.944 85.4482 154.006 85.2098 150.742 85.2098C147.477 85.2098 144.916 85.4483 144.916 85.4483L149.599 77.1807L156.944 85.4482ZM148.72 69.3898L146.498 72.6894L151.432 72.1499L148.72 69.3898ZM143.698 20.8382L136.73 26.1076L120.357 0L102.616 20.3866L95.2965 15.5817L66.4313 48.3258H164.139L143.698 20.8382ZM88.14 37.1226L91.9444 28.1776L95.2966 24.0376V19.9476L100.319 24.0375L88.14 37.1226ZM143.698 24.0376L158.652 44.1983L138.651 28.5414L143.698 24.0376ZM127.828 41.5888L127.401 31.2136L111.757 19.9476L116.352 16.1714L120.86 7.23895L146.084 45.9924L127.828 41.5888Z" fill="#1296DB"/>
<path d="M106.885 41.8146C106.885 41.7393 106.948 41.6766 107.023 41.6766C107.111 41.6766 107.174 41.7393 107.174 41.8146C107.174 42.0027 107.325 42.1659 107.513 42.1659C107.701 42.1659 107.852 42.0153 107.852 41.8146V35.6923C107.852 35.6171 107.915 35.5543 107.99 35.5543C108.078 35.5543 108.128 35.617 108.128 35.6923V41.8146C108.128 42.1659 107.852 42.4418 107.513 42.4418C107.174 42.4418 106.885 42.1659 106.885 41.8146ZM109.095 42.3038V35.7049C109.095 35.6296 109.158 35.5668 109.233 35.5668C109.321 35.5668 109.384 35.6296 109.384 35.7049V42.3038C109.384 42.3791 109.321 42.4418 109.233 42.4418C109.158 42.4418 109.095 42.3666 109.095 42.3038ZM111.518 36.169V38.6029C111.518 38.8413 111.38 39.067 111.167 39.1674C111.154 39.18 111.129 39.18 111.104 39.18L111.518 42.2788C111.531 42.354 111.468 42.4293 111.393 42.4293H111.38C111.305 42.4293 111.255 42.3791 111.242 42.3165L110.828 39.18H110.552V42.3038C110.552 42.3791 110.501 42.4418 110.413 42.4418C110.338 42.4418 110.275 42.3791 110.275 42.3038V36.1816C110.275 35.8428 110.552 35.5668 110.903 35.5668C111.242 35.5543 111.518 35.8302 111.518 36.169ZM111.242 36.169C111.242 36.1245 111.234 36.0804 111.217 36.0392C111.2 35.998 111.175 35.9606 111.143 35.9291C111.112 35.8976 111.074 35.8726 111.033 35.8556C110.992 35.8387 110.948 35.83 110.903 35.8302C110.715 35.8302 110.552 35.9808 110.552 36.169V38.904H111.066C111.179 38.8413 111.242 38.7284 111.242 38.6154V36.169ZM112.711 41.8019C112.711 41.9901 112.862 42.1532 113.05 42.1532C113.238 42.1532 113.389 42.0026 113.389 41.8019C113.389 41.7266 113.452 41.6639 113.54 41.6639C113.615 41.6639 113.678 41.7266 113.678 41.8019C113.678 42.1532 113.402 42.4293 113.05 42.4293C112.711 42.4293 112.435 42.1532 112.435 41.8019V36.1564C112.435 35.9934 112.5 35.8372 112.615 35.7219C112.731 35.6067 112.887 35.5418 113.05 35.5416C113.402 35.5416 113.678 35.8177 113.678 36.1564C113.678 36.2442 113.615 36.3069 113.54 36.3069C113.452 36.3069 113.389 36.2442 113.389 36.1564C113.389 36.1118 113.381 36.0677 113.364 36.0265C113.347 35.9854 113.322 35.9479 113.29 35.9165C113.259 35.885 113.221 35.86 113.18 35.8431C113.139 35.8261 113.095 35.8175 113.05 35.8177C113.006 35.8175 112.961 35.8261 112.92 35.8431C112.879 35.86 112.842 35.885 112.81 35.9165C112.778 35.9479 112.754 35.9854 112.737 36.0265C112.72 36.0677 112.711 36.1118 112.711 36.1564V38.8412H113.54C113.615 38.8412 113.678 38.9039 113.678 38.9791C113.678 39.0544 113.615 39.1171 113.54 39.1171H112.711V41.8019ZM115.888 35.7049V42.3038C115.888 42.3917 115.825 42.4418 115.737 42.4418C115.662 42.4418 115.599 42.3917 115.599 42.3038V39.0295L114.921 36.6834V42.3038C114.921 42.3917 114.858 42.4418 114.783 42.4418C114.695 42.4418 114.632 42.3917 114.632 42.3038V35.7049C114.632 35.6296 114.682 35.5794 114.758 35.5543C114.833 35.5417 114.896 35.5919 114.908 35.6546L115.599 38.0257V35.7049C115.599 35.617 115.662 35.5543 115.737 35.5543C115.825 35.5543 115.888 35.617 115.888 35.7049ZM116.804 41.8146V36.169C116.804 35.8302 117.093 35.5543 117.432 35.5543C117.771 35.5543 118.047 35.8303 118.047 36.169C118.047 36.2568 117.997 36.3195 117.909 36.3195C117.834 36.3195 117.771 36.2568 117.771 36.169C117.771 36.1245 117.763 36.0804 117.746 36.0392C117.729 35.998 117.704 35.9606 117.672 35.9291C117.641 35.8976 117.603 35.8726 117.562 35.8556C117.521 35.8387 117.477 35.83 117.432 35.8302C117.387 35.83 117.343 35.8387 117.302 35.8556C117.261 35.8726 117.223 35.8976 117.192 35.9291C117.16 35.9606 117.135 35.998 117.118 36.0392C117.101 36.0804 117.093 36.1245 117.093 36.169V41.8146C117.093 42.0027 117.244 42.1659 117.432 42.1659C117.62 42.1659 117.771 42.0153 117.771 41.8146V40.0331H117.432C117.357 40.0331 117.294 39.9704 117.294 39.8951C117.294 39.8072 117.357 39.757 117.432 39.757H117.909C117.997 39.757 118.047 39.8072 118.047 39.8951V41.8146C118.047 42.1659 117.771 42.4418 117.432 42.4418C117.093 42.4418 116.804 42.1659 116.804 41.8146ZM118.964 41.8146V35.6923C118.964 35.6171 119.027 35.5543 119.102 35.5543C119.19 35.5543 119.253 35.617 119.253 35.6923V41.8146C119.253 42.0027 119.403 42.1659 119.592 42.1659C119.78 42.1659 119.931 42.0153 119.931 41.8146V35.6923C119.931 35.6171 119.993 35.5543 120.069 35.5543C120.157 35.5543 120.207 35.617 120.207 35.6923V41.8146C120.207 42.1659 119.93 42.4418 119.592 42.4418C119.253 42.4418 118.964 42.1659 118.964 41.8146ZM121.136 42.3038V41.8271C121.136 41.7519 121.199 41.6891 121.274 41.6891C121.362 41.6891 121.425 41.7519 121.425 41.8271V42.3038C121.425 42.3791 121.362 42.4418 121.274 42.4418C121.199 42.4418 121.136 42.3666 121.136 42.3038ZM122.379 41.8146V36.169C122.379 35.8302 122.655 35.5543 123.007 35.5543C123.17 35.5545 123.326 35.6194 123.441 35.7346C123.557 35.8498 123.622 36.0061 123.622 36.169C123.622 36.2568 123.572 36.3195 123.484 36.3195C123.409 36.3195 123.346 36.2568 123.346 36.169C123.346 36.1245 123.337 36.0804 123.32 36.0392C123.303 35.998 123.278 35.9606 123.247 35.9291C123.215 35.8976 123.178 35.8726 123.137 35.8556C123.095 35.8387 123.051 35.83 123.007 35.8302C122.962 35.83 122.918 35.8387 122.877 35.8556C122.835 35.8726 122.798 35.8976 122.767 35.9291C122.735 35.9606 122.71 35.998 122.693 36.0392C122.676 36.0804 122.667 36.1245 122.668 36.169V41.8146C122.668 42.0027 122.818 42.1659 123.007 42.1659C123.195 42.1659 123.346 42.0153 123.346 41.8146C123.346 41.7393 123.408 41.6766 123.484 41.6766C123.572 41.6766 123.622 41.7393 123.622 41.8146C123.622 42.1659 123.346 42.4418 123.007 42.4418C122.655 42.4418 122.379 42.1659 122.379 41.8146ZM124.564 41.8271V36.1816C124.564 35.8428 124.852 35.5668 125.191 35.5668C125.53 35.5668 125.819 35.8429 125.819 36.1816V41.8271C125.819 42.1783 125.53 42.4544 125.191 42.4544C124.852 42.4418 124.564 42.1659 124.564 41.8271ZM124.852 36.1816V41.8271C124.852 42.0153 125.003 42.1783 125.191 42.1783C125.38 42.1783 125.53 42.0278 125.53 41.8271V36.1816C125.53 36.1371 125.522 36.0929 125.505 36.0517C125.488 36.0106 125.463 35.9731 125.431 35.9416C125.4 35.9101 125.362 35.8852 125.321 35.8682C125.28 35.8512 125.236 35.8426 125.191 35.8428C125.147 35.8426 125.103 35.8512 125.061 35.8682C125.02 35.8852 124.983 35.9101 124.951 35.9416C124.92 35.9731 124.895 36.0106 124.878 36.0517C124.861 36.0929 124.852 36.1371 124.852 36.1816ZM128.958 36.169V42.2912C128.958 42.3665 128.895 42.4293 128.82 42.4293C128.745 42.4293 128.682 42.3665 128.682 42.2912V36.169C128.682 36.1245 128.673 36.0804 128.656 36.0392C128.639 35.998 128.614 35.9606 128.583 35.9291C128.551 35.8976 128.514 35.8726 128.473 35.8556C128.432 35.8387 128.387 35.83 128.343 35.8302C128.154 35.8302 127.991 35.9808 127.991 36.169V42.2912C127.991 42.3665 127.941 42.4293 127.853 42.4293C127.778 42.4293 127.715 42.3665 127.715 42.2912V36.169C127.715 36.1245 127.707 36.0803 127.69 36.0391C127.673 35.998 127.648 35.9605 127.616 35.929C127.585 35.8975 127.547 35.8726 127.506 35.8556C127.465 35.8387 127.421 35.83 127.376 35.8302C127.331 35.83 127.287 35.8387 127.246 35.8556C127.205 35.8726 127.167 35.8976 127.136 35.9291C127.104 35.9606 127.079 35.998 127.062 36.0392C127.045 36.0804 127.037 36.1245 127.037 36.169V42.2912C127.037 42.3665 126.974 42.4293 126.899 42.4293C126.811 42.4293 126.748 42.3665 126.748 42.2912V36.169C126.748 35.8302 127.037 35.5543 127.376 35.5543C127.564 35.5543 127.74 35.6421 127.853 35.7801C127.966 35.6421 128.142 35.5543 128.343 35.5543C128.506 35.5545 128.662 35.6194 128.778 35.7346C128.893 35.8498 128.958 36.0061 128.958 36.169Z" fill="#1296DB"/>
</svg>
